<svg xmlns="http://www.w3.org/2000/svg" viewBox="0 0 512 512"><path transform="translate(256 256) scale(0.8101927817973755) translate(-257.7439842224121 -265.1000061035156)" fill="#3266e4" d="m410.6 245.34-43.79 87.32h-57.47l-53.44-97.09-53.25 97.1h-58.76l-44.7-90.6a80.2 80.2 0 0 1-37.35-67.84A80.27 80.27 0 0 1 142.08 94a80.27 80.27 0 0 1 80.24 80.23c0 38.92-27.76 71.4-64.56 78.71L175.72 292l49.07-89.2h64.4l47.05 90.71 18.27-41.25a80.3 80.3 0 0 1-61.35-78.02A80.27 80.27 0 0 1 373.4 94a80.24 80.24 0 0 1 37.2 151.34M142.08 130a44.27 44.27 0 0 0-44.26 44.23A44.25 44.25 0 1 0 142.08 130m231.32 0a44.27 44.27 0 0 0-44.25 44.23A44.25 44.25 0 1 0 373.4 130M104.6 324.8q1.54.07 3.1.34c4.09.72 7.96 2.5 11.14 5.2 47.8 40.06 92.93 58.3 137.06 58.3s89.27-18.24 137.03-58.3a23.8 23.8 0 0 1 33.51 2.95 23.9 23.9 0 0 1-2.94 33.48c-53.78 45.09-110.2 69.43-167.6 69.43-57.44 0-113.85-24.34-167.6-69.43a23.86 23.86 0 0 1-2.94-33.48 23.7 23.7 0 0 1 19.24-8.49"/></svg>
